<svg xmlns="http://www.w3.org/2000/svg" xmlns:xlink="http://www.w3.org/1999/xlink" width="500" zoomAndPan="magnify" viewBox="0 0 375 374.999991" height="500" preserveAspectRatio="xMidYMid meet" version="1.0"><defs><g/><clipPath id="0fba4fd11f"><path d="M 33.054688 37.5 L 342 37.5 L 342 212.25 L 33.054688 212.25 Z M 33.054688 37.5 " clip-rule="nonzero"/></clipPath></defs><g clip-path="url(#0fba4fd11f)"><path fill="#e3a54f" d="M 341.933594 97.925781 L 333.476562 105.824219 L 334.722656 111.230469 C 294.15625 156.199219 267.363281 177.464844 259.542969 166.132812 C 253.300781 144.621094 256.425781 123.347656 266.25 102.242188 L 274.597656 98.335938 L 276.210938 79.824219 L 263.378906 93.265625 L 266.007812 102.269531 C 255.402344 120.066406 244.007812 135.832031 230.976562 147.351562 C 217.253906 159.476562 213.0625 161.175781 204.1875 142.101562 C 197.617188 127.96875 195.363281 109.03125 190.945312 92.5 L 202.183594 79.378906 L 187.496094 37.546875 L 172.808594 79.378906 L 184.046875 92.496094 C 179.628906 109.027344 177.375 127.96875 170.796875 142.101562 C 161.925781 161.175781 157.742188 159.472656 144.015625 147.351562 C 130.984375 135.832031 119.585938 120.066406 108.984375 102.269531 L 111.609375 93.265625 L 98.777344 79.824219 L 100.386719 98.335938 L 108.742188 102.246094 C 118.570312 123.347656 121.695312 144.621094 115.449219 166.132812 C 107.628906 177.464844 80.839844 156.199219 40.265625 111.230469 L 41.511719 105.824219 L 33.054688 97.925781 L 34.71875 109.378906 L 39.734375 111.386719 L 97.535156 212.007812 L 79.785156 163.128906 C 80.144531 163.421875 80.503906 163.714844 80.863281 164 C 89.910156 171.246094 105.765625 182.984375 117.785156 175.992188 C 119.820312 174.808594 121.523438 173.1875 122.859375 171.253906 L 123.6875 170.050781 L 124.097656 168.644531 C 126.519531 160.296875 127.652344 152.003906 127.664062 143.800781 C 130.964844 147.4375 134.421875 150.890625 138.050781 154.097656 C 144.160156 159.496094 151.902344 166.617188 160.726562 165.3125 C 170.269531 163.90625 175.328125 153.730469 178.964844 145.902344 C 183 137.226562 185.417969 127.550781 187.492188 118.066406 C 189.574219 127.550781 191.988281 137.226562 196.023438 145.902344 C 199.667969 153.730469 204.722656 163.90625 214.265625 165.3125 C 223.09375 166.613281 230.832031 159.496094 236.941406 154.097656 C 240.570312 150.890625 244.027344 147.4375 247.324219 143.800781 C 247.34375 152.003906 248.472656 160.296875 250.894531 168.644531 L 251.300781 170.050781 L 252.132812 171.253906 C 253.46875 173.1875 255.171875 174.808594 257.210938 175.992188 C 269.230469 182.988281 285.082031 171.246094 294.125 164 C 294.492188 163.714844 294.851562 163.421875 295.207031 163.128906 L 279.632812 208.394531 L 335.253906 111.386719 L 340.269531 109.382812 Z M 341.933594 97.925781 " fill-opacity="1" fill-rule="evenodd"/></g><path fill="#e3a54f" d="M 157.160156 135.269531 C 158.195312 139.996094 159.359375 144.777344 160.941406 149.347656 C 162 147.960938 163.425781 145.648438 165.316406 141.765625 C 162.4375 131.148438 160.863281 119.082031 157.15625 109.378906 C 153.152344 119.867188 151.636719 133.117188 148.273438 144.3125 C 149.765625 145.625 151.726562 147.304688 153.59375 148.707031 C 155.074219 144.335938 156.175781 139.777344 157.160156 135.269531 Z M 157.160156 135.269531 " fill-opacity="1" fill-rule="evenodd"/><path fill="#e3a54f" d="M 217.742188 135.269531 C 218.734375 139.792969 219.84375 144.375 221.328125 148.761719 C 223.191406 147.375 225.148438 145.695312 226.648438 144.375 C 223.273438 133.167969 221.757812 119.882812 217.746094 109.378906 C 214.054688 119.042969 212.476562 131.058594 209.621094 141.648438 C 211.5 145.527344 212.929688 147.859375 213.992188 149.265625 C 215.558594 144.726562 216.714844 139.96875 217.742188 135.269531 Z M 217.742188 135.269531 " fill-opacity="1" fill-rule="evenodd"/><path fill="#e3a54f" d="M 271.289062 162.402344 C 272.390625 155.210938 274.265625 147.652344 274.453125 140.898438 C 270.210938 145.390625 266.488281 151.359375 262.59375 156.835938 C 262.957031 158.835938 263.402344 160.820312 263.925781 162.804688 C 265.105469 161.265625 266.238281 159.679688 267.339844 158.101562 C 266.992188 160.042969 266.667969 162.011719 266.414062 163.988281 C 267.625 163.832031 269.214844 163.375 271.289062 162.402344 Z M 271.289062 162.402344 " fill-opacity="1" fill-rule="evenodd"/><path fill="#e3a54f" d="M 112.398438 156.839844 C 108.503906 151.359375 104.785156 145.390625 100.539062 140.898438 C 100.722656 147.648438 102.601562 155.210938 103.699219 162.398438 C 105.777344 163.371094 107.367188 163.832031 108.578125 163.980469 C 108.324219 162.007812 108 160.039062 107.652344 158.09375 C 108.753906 159.675781 109.886719 161.261719 111.066406 162.800781 C 111.589844 160.824219 112.039062 158.835938 112.398438 156.839844 Z M 112.398438 156.839844 " fill-opacity="1" fill-rule="evenodd"/><path fill="#e3a54f" d="M 252.15625 197.277344 C 248.878906 195.371094 246.085938 192.773438 243.863281 189.5625 L 242.105469 187.011719 L 241.242188 184.042969 C 240.632812 181.9375 240.09375 179.824219 239.625 177.691406 C 233.628906 182.753906 225.960938 188.113281 216.398438 188.113281 C 215.195312 188.113281 213.984375 188.027344 212.800781 187.851562 C 198.316406 185.714844 191.347656 172.183594 187.496094 163.984375 C 183.652344 172.179688 176.691406 185.714844 162.195312 187.851562 C 161.011719 188.023438 159.800781 188.113281 158.601562 188.113281 C 149.039062 188.113281 141.367188 182.753906 135.375 177.691406 C 134.902344 179.824219 134.363281 181.9375 133.753906 184.042969 L 132.894531 187.007812 L 131.140625 189.550781 C 128.917969 192.769531 126.128906 195.363281 122.847656 197.273438 C 118.84375 199.605469 114.386719 200.785156 109.59375 200.785156 C 107.578125 200.785156 105.566406 200.570312 103.578125 200.183594 L 108 208.835938 C 122.351562 203.6875 146.339844 197.558594 179.273438 197.558594 L 180.382812 197.558594 C 182.8125 197.558594 185.183594 197.59375 187.5 197.648438 C 189.816406 197.59375 192.183594 197.558594 194.617188 197.558594 L 195.722656 197.558594 C 231.75 197.558594 257.074219 204.890625 270.789062 210.25 L 276.644531 198.796875 L 276.65625 198.765625 C 272.984375 200.023438 269.214844 200.777344 265.410156 200.777344 C 260.613281 200.785156 256.15625 199.601562 252.15625 197.277344 Z M 252.15625 197.277344 " fill-opacity="1" fill-rule="evenodd"/><g fill="#c0c0c0" fill-opacity="1"><g transform="translate(12.12639, 293.039438)"><g><path d="M 0.71875 0 L 22.125 -48.859375 L 23.203125 -48.859375 L 44.609375 0 L 36.75 0 L 31.34375 -12.96875 L 9.9375 -12.96875 L 4.609375 0 Z M 11.03125 -15.703125 L 30.1875 -15.703125 L 20.6875 -39.0625 Z M 11.03125 -15.703125 "/></g></g></g><g fill="#c0c0c0" fill-opacity="1"><g transform="translate(75.10938, 293.039438)"><g><path d="M 12.90625 -2.953125 L 12.90625 -47.703125 L 20.03125 -47.703125 L 20.03125 -2.953125 C 20.03125 2.328125 18.410156 6.828125 15.171875 10.546875 C 11.929688 14.273438 8.003906 16.140625 3.390625 16.140625 C 0.941406 16.140625 -1.457031 15.804688 -3.8125 15.140625 L -3.09375 9.515625 C -1.800781 10.378906 -0.144531 11.132812 1.875 11.78125 C 3.894531 12.425781 5.625 12.75 7.0625 12.75 C 8.695312 11.738281 10.078125 9.734375 11.203125 6.734375 C 12.335938 3.734375 12.90625 0.503906 12.90625 -2.953125 Z M 12.90625 -2.953125 "/></g></g></g><g fill="#c0c0c0" fill-opacity="1"><g transform="translate(120.7983, 293.039438)"><g><path d="M 13.109375 -47.703125 L 13.109375 0 L 6.484375 0 L 6.484375 -47.703125 Z M 13.109375 -47.703125 "/></g></g></g><g fill="#c0c0c0" fill-opacity="1"><g transform="translate(158.056358, 293.039438)"><g><path d="M 22.125 1.15625 L 0.71875 -47.703125 L 8.578125 -47.703125 L 24.421875 -8.640625 L 38.703125 -47.703125 L 42.296875 -47.703125 L 23.28125 1.15625 Z M 22.125 1.15625 "/></g></g></g><g fill="#c0c0c0" fill-opacity="1"><g transform="translate(218.733478, 293.039438)"><g><path d="M 13.109375 -47.703125 L 13.109375 0 L 6.484375 0 L 6.484375 -47.703125 Z M 13.109375 -47.703125 "/></g></g></g><g fill="#c0c0c0" fill-opacity="1"><g transform="translate(255.991547, 293.039438)"><g><path d="M 13.84375 0 L 6.484375 0 L 6.484375 -47.703125 L 13.84375 -47.703125 L 13.84375 -24.21875 L 36.109375 -47.703125 L 40.859375 -47.703125 L 18.296875 -25.515625 L 43.890625 0 L 34.65625 0.9375 L 13.84375 -23.5 Z M 13.84375 0 "/></g></g></g><g fill="#c0c0c0" fill-opacity="1"><g transform="translate(317.53336, 293.039438)"><g><path d="M 0.71875 0 L 22.125 -48.859375 L 23.203125 -48.859375 L 44.609375 0 L 36.75 0 L 31.34375 -12.96875 L 9.9375 -12.96875 L 4.609375 0 Z M 11.03125 -15.703125 L 30.1875 -15.703125 L 20.6875 -39.0625 Z M 11.03125 -15.703125 "/></g></g></g></svg>